<svg xml:space="preserve" viewBox="0 0 100 100" y="0" x="0" xmlns="http://www.w3.org/2000/svg" id="Layer_1" version="1.1" style="height: 100%;width: 100%;background: rgb(241 242 243 / 0%);" width="242px" height="242px"><g class="ldl-scale" style="transform-origin: 50% 50%; transform: rotate(0deg) scale(0.8, 0.8);"><g class="ldl-ani"><g class="ldl-layer"><g class="ldl-ani"><g><g class="ldl-layer"><g class="ldl-ani" style="transform-origin: 50px 50px; animation: 4.54545s linear -2.70455s infinite normal forwards running static-d67d8f8e-1b1c-4140-983c-f7f7f7950f3e;"><path fill="#d65a62" d="M85.7 31.9H14.3c-2.4 0-4.3-1.9-4.3-4.3s1.9-4.3 4.3-4.3h71.5c2.4 0 4.3 1.9 4.3 4.3-.1 2.4-2 4.3-4.4 4.3z" style="fill: rgb(79, 87, 193);"></path></g></g></g></g></g><g class="ldl-layer"><g class="ldl-ani"><g><g class="ldl-layer"><g class="ldl-ani" style="transform-origin: 50px 50px; animation: 4.54545s linear -3.31818s infinite normal forwards running static-d67d8f8e-1b1c-4140-983c-f7f7f7950f3e;"><path fill="#d65a62" d="M85.7 46.8H14.3c-2.4 0-4.3-1.9-4.3-4.3s1.9-4.3 4.3-4.3h71.5c2.4 0 4.3 1.9 4.3 4.3-.1 2.4-2 4.3-4.4 4.3z" style="fill: rgb(79, 87, 193);"></path></g></g></g></g></g><g class="ldl-layer"><g class="ldl-ani"><g><g class="ldl-layer"><g class="ldl-ani" style="transform-origin: 50px 50px; animation: 4.54545s linear -3.93182s infinite normal forwards running static-d67d8f8e-1b1c-4140-983c-f7f7f7950f3e;"><path fill="#d65a62" d="M85.7 61.7H14.3c-2.4 0-4.3-1.9-4.3-4.3s1.9-4.3 4.3-4.3h71.5c2.4 0 4.3 1.9 4.3 4.3-.1 2.4-2 4.3-4.4 4.3z" style="fill: rgb(79, 87, 193);"></path></g></g></g></g></g><g class="ldl-layer"><g class="ldl-ani"><g><g class="ldl-layer"><g class="ldl-ani" style="transform-origin: 50px 50px; animation: 4.54545s linear -4.54545s infinite normal forwards running static-d67d8f8e-1b1c-4140-983c-f7f7f7950f3e;"><path fill="#d65a62" d="M85.7 76.7H14.3c-2.4 0-4.3-1.9-4.3-4.3s1.9-4.3 4.3-4.3h71.5c2.4 0 4.3 1.9 4.3 4.3-.1 2.4-2 4.3-4.4 4.3z" style="fill: rgb(79, 87, 193);"></path></g></g></g></g></g><metadata xmlns:d="https://loading.io/stock/"><d:name>menu</d:name><d:tags>hamburger,bars,stripe,navigation,navbar,dropdown,menu,web application</d:tags><d:license>free</d:license><d:slug>q66yng</d:slug></metadata></g></g></svg>